<svg width="20" height="20" viewBox="0 0 20 20" fill="none" xmlns="http://www.w3.org/2000/svg">
<g clip-path="url(#clip0)">
<path fill-rule="evenodd" clip-rule="evenodd" d="M6.87498 0.625C6.87498 0.45924 6.94083 0.300269 7.05804 0.183058C7.17525 0.065848 7.33422 0 7.49998 0L12.5 0C12.6657 0 12.8247 0.065848 12.9419 0.183058C13.0591 0.300269 13.125 0.45924 13.125 0.625C13.125 0.79076 13.0591 0.949732 12.9419 1.06694C12.8247 1.18415 12.6657 1.25 12.5 1.25H11.25V2.5875C12.916 2.82876 14.4771 3.54537 15.7462 4.65142C17.0153 5.75748 17.9385 7.20605 18.4051 8.82351C18.8718 10.441 18.8621 12.1587 18.3771 13.7708C17.8922 15.3828 16.9527 16.8209 15.6712 17.9125L16.6925 18.9325C16.8098 19.0499 16.8758 19.209 16.8758 19.375C16.8758 19.541 16.8098 19.7001 16.6925 19.8175C16.5751 19.9349 16.4159 20.0008 16.25 20.0008C16.084 20.0008 15.9248 19.9349 15.8075 19.8175L14.6525 18.6612C13.2593 19.5383 11.6462 20.0024 9.99998 20C8.35391 20.0028 6.74074 19.5391 5.34748 18.6625L4.19248 19.8175C4.07512 19.9349 3.91595 20.0008 3.74998 20.0008C3.58401 20.0008 3.42484 19.9349 3.30748 19.8175C3.19012 19.7001 3.12419 19.541 3.12419 19.375C3.12419 19.209 3.19012 19.0499 3.30748 18.9325L4.32873 17.9125C3.04722 16.8209 2.10771 15.3828 1.62281 13.7708C1.1379 12.1587 1.12819 10.441 1.59482 8.82351C2.06146 7.20605 2.98465 5.75748 4.25373 4.65142C5.52281 3.54537 7.08393 2.82876 8.74998 2.5875V1.25H7.49873C7.33297 1.25 7.174 1.18415 7.05679 1.06694C6.93958 0.949732 6.87373 0.79076 6.87373 0.625H6.87498ZM1.07498 6.73375C0.751554 6.45242 0.489466 6.10756 0.305015 5.72061C0.120564 5.33366 0.0176937 4.9129 0.00280196 4.4845C-0.0120898 4.0561 0.0613152 3.62921 0.218452 3.23039C0.375589 2.83157 0.613097 2.46934 0.916207 2.16623C1.21932 1.86312 1.58155 1.62561 1.98037 1.46847C2.37919 1.31134 2.80608 1.23793 3.23448 1.25282C3.66288 1.26771 4.08364 1.37058 4.47059 1.55504C4.85754 1.73949 5.2024 2.00157 5.48373 2.325C3.58367 3.28968 2.03966 4.83369 1.07498 6.73375ZM16.875 1.25C15.9337 1.25 15.0887 1.66625 14.5162 2.325C16.4163 3.28968 17.9603 4.83369 18.925 6.73375C19.4056 6.3161 19.7471 5.76161 19.9039 5.14451C20.0607 4.52741 20.0252 3.87713 19.8023 3.28074C19.5793 2.68434 19.1795 2.17028 18.6564 1.80735C18.1332 1.44443 17.5117 1.24997 16.875 1.25ZM10.625 6.25C10.625 6.08424 10.5591 5.92527 10.4419 5.80806C10.3247 5.69085 10.1657 5.625 9.99998 5.625C9.83422 5.625 9.67525 5.69085 9.55804 5.80806C9.44083 5.92527 9.37498 6.08424 9.37498 6.25V11.1025L7.56623 14.72C7.5287 14.7935 7.50609 14.8736 7.49969 14.9558C7.49329 15.0381 7.50324 15.1208 7.52895 15.1991C7.55466 15.2775 7.59563 15.35 7.64949 15.4125C7.70336 15.475 7.76906 15.5261 7.8428 15.5631C7.91654 15.6 7.99687 15.622 8.07915 15.6278C8.16144 15.6336 8.24404 15.623 8.32222 15.5967C8.40039 15.5703 8.47258 15.5288 8.53463 15.4745C8.59667 15.4201 8.64735 15.354 8.68373 15.28L10.5587 11.53C10.6023 11.4431 10.625 11.3472 10.625 11.25V6.25Z" fill="black"/>
</g>
<defs>
<clipPath id="clip0">
<rect width="20" height="20" fill="white"/>
</clipPath>
</defs>
</svg>
