<svg width="20" height="20" viewBox="0 0 20 20" fill="none" xmlns="http://www.w3.org/2000/svg">
<path d="M9.99999 0L12.0862 1.08L14.4087 1.4325L15.4612 3.5325L17.1325 5.1825L16.75 7.5L17.1325 9.8175L15.4612 11.4675L14.4087 13.5675L12.0862 13.92L9.99999 15L7.91374 13.92L5.59124 13.5675L4.53874 11.4675L2.86749 9.8175L3.24999 7.5L2.86749 5.1825L4.53874 3.5325L5.59124 1.4325L7.91374 1.08L9.99999 0Z" fill="black"/>
<path d="M5 14.7424V19.9999L10 18.7499L15 19.9999V14.7424L12.4775 15.1249L10 16.4074L7.5225 15.1249L5 14.7424Z" fill="black"/>
</svg>
