<svg width="11" height="11" viewBox="0 0 11 11" fill="none" xmlns="http://www.w3.org/2000/svg">
<g clip-path="url(#clip0)">
<path fill-rule="evenodd" clip-rule="evenodd" d="M1.19043 3.09479V9.20745C1.19043 9.36957 1.25483 9.52504 1.36946 9.63968C1.4841 9.75431 1.63958 9.81871 1.8017 9.81871H9.13689C9.29901 9.81871 9.45449 9.75431 9.56912 9.63968C9.68375 9.52504 9.74816 9.36957 9.74816 9.20745V3.09479H1.19043ZM1.8017 1.26099C1.47746 1.26099 1.1665 1.38979 0.937234 1.61906C0.707965 1.84833 0.579163 2.15928 0.579163 2.48352L0.579163 9.20745C0.579163 9.53168 0.707965 9.84264 0.937234 10.0719C1.1665 10.3012 1.47746 10.43 1.8017 10.43H9.13689C9.46113 10.43 9.77208 10.3012 10.0014 10.0719C10.2306 9.84264 10.3594 9.53168 10.3594 9.20745V2.48352C10.3594 2.15928 10.2306 1.84833 10.0014 1.61906C9.77208 1.38979 9.46113 1.26099 9.13689 1.26099H1.8017Z" fill="white"/>
<path fill-rule="evenodd" clip-rule="evenodd" d="M2.7186 0.649658C2.79966 0.649658 2.87739 0.681859 2.93471 0.739176C2.99203 0.796493 3.02423 0.874232 3.02423 0.955291V1.26092C3.02423 1.34198 2.99203 1.41972 2.93471 1.47704C2.87739 1.53436 2.79966 1.56656 2.7186 1.56656C2.63754 1.56656 2.5598 1.53436 2.50248 1.47704C2.44516 1.41972 2.41296 1.34198 2.41296 1.26092V0.955291C2.41296 0.874232 2.44516 0.796493 2.50248 0.739176C2.5598 0.681859 2.63754 0.649658 2.7186 0.649658V0.649658ZM8.21999 0.649658C8.30105 0.649658 8.37879 0.681859 8.43611 0.739176C8.49343 0.796493 8.52563 0.874232 8.52563 0.955291V1.26092C8.52563 1.34198 8.49343 1.41972 8.43611 1.47704C8.37879 1.53436 8.30105 1.56656 8.21999 1.56656C8.13893 1.56656 8.06119 1.53436 8.00388 1.47704C7.94656 1.41972 7.91436 1.34198 7.91436 1.26092V0.955291C7.91436 0.874232 7.94656 0.796493 8.00388 0.739176C8.06119 0.681859 8.13893 0.649658 8.21999 0.649658V0.649658Z" fill="white"/>
<path d="M8.22 4.31738H7.60873C7.43994 4.31738 7.3031 4.45422 7.3031 4.62302V5.23428C7.3031 5.40308 7.43994 5.53992 7.60873 5.53992H8.22C8.3888 5.53992 8.52563 5.40308 8.52563 5.23428V4.62302C8.52563 4.45422 8.3888 4.31738 8.22 4.31738Z" fill="white"/>
</g>
<defs>
<clipPath id="clip0">
<rect width="9.78026" height="9.78026" fill="white" transform="translate(0.579163 0.649658)"/>
</clipPath>
</defs>
</svg>
