<svg width="12" height="12" viewBox="0 0 12 12" fill="none" xmlns="http://www.w3.org/2000/svg">
<g clip-path="url(#clip0)">
<path fill-rule="evenodd" clip-rule="evenodd" d="M10.5 0.75H1.5C1.30109 0.75 1.11032 0.829018 0.96967 0.96967C0.829018 1.11032 0.75 1.30109 0.75 1.5V10.1895L2.25 8.6895C2.53124 8.40818 2.91271 8.25009 3.3105 8.25H10.5C10.6989 8.25 10.8897 8.17098 11.0303 8.03033C11.171 7.88968 11.25 7.69891 11.25 7.5V1.5C11.25 1.30109 11.171 1.11032 11.0303 0.96967C10.8897 0.829018 10.6989 0.75 10.5 0.75ZM1.5 0C1.10218 0 0.720644 0.158035 0.43934 0.43934C0.158035 0.720644 0 1.10218 0 1.5L0 11.0948C1.57612e-05 11.169 0.0220444 11.2415 0.0632979 11.3032C0.104551 11.3648 0.163175 11.4129 0.23175 11.4412C0.300324 11.4696 0.375766 11.4769 0.448527 11.4624C0.521288 11.4478 0.588098 11.412 0.6405 11.3595L2.78025 9.21975C2.92087 9.07909 3.1116 9.00004 3.3105 9H10.5C10.8978 9 11.2794 8.84196 11.5607 8.56066C11.842 8.27936 12 7.89783 12 7.5V1.5C12 1.10218 11.842 0.720644 11.5607 0.43934C11.2794 0.158035 10.8978 0 10.5 0L1.5 0Z" fill="white"/>
<path fill-rule="evenodd" clip-rule="evenodd" d="M2.25 2.625C2.25 2.52554 2.28951 2.43016 2.35984 2.35984C2.43016 2.28951 2.52554 2.25 2.625 2.25H9.375C9.47446 2.25 9.56984 2.28951 9.64017 2.35984C9.71049 2.43016 9.75 2.52554 9.75 2.625C9.75 2.72446 9.71049 2.81984 9.64017 2.89016C9.56984 2.96049 9.47446 3 9.375 3H2.625C2.52554 3 2.43016 2.96049 2.35984 2.89016C2.28951 2.81984 2.25 2.72446 2.25 2.625ZM2.25 4.5C2.25 4.40054 2.28951 4.30516 2.35984 4.23484C2.43016 4.16451 2.52554 4.125 2.625 4.125H9.375C9.47446 4.125 9.56984 4.16451 9.64017 4.23484C9.71049 4.30516 9.75 4.40054 9.75 4.5C9.75 4.59946 9.71049 4.69484 9.64017 4.76516C9.56984 4.83549 9.47446 4.875 9.375 4.875H2.625C2.52554 4.875 2.43016 4.83549 2.35984 4.76516C2.28951 4.69484 2.25 4.59946 2.25 4.5ZM2.25 6.375C2.25 6.27554 2.28951 6.18016 2.35984 6.10983C2.43016 6.03951 2.52554 6 2.625 6H6.375C6.47446 6 6.56984 6.03951 6.64017 6.10983C6.71049 6.18016 6.75 6.27554 6.75 6.375C6.75 6.47446 6.71049 6.56984 6.64017 6.64017C6.56984 6.71049 6.47446 6.75 6.375 6.75H2.625C2.52554 6.75 2.43016 6.71049 2.35984 6.64017C2.28951 6.56984 2.25 6.47446 2.25 6.375Z" fill="white"/>
</g>
<defs>
<clipPath id="clip0">
<rect width="12" height="12" fill="white"/>
</clipPath>
</defs>
</svg>
