<svg width="15" height="15" viewBox="0 0 15 15" fill="none" xmlns="http://www.w3.org/2000/svg">
<g clip-path="url(#clip0)">
<path fill-rule="evenodd" clip-rule="evenodd" d="M11.5819 3.41811C11.6256 3.46165 11.6602 3.51338 11.6838 3.57033C11.7075 3.62728 11.7196 3.68833 11.7196 3.74998C11.7196 3.81164 11.7075 3.87269 11.6838 3.92964C11.6602 3.98659 11.6256 4.03832 11.5819 4.08186L5.01942 10.6444C4.97588 10.688 4.92415 10.7226 4.8672 10.7463C4.81025 10.7699 4.7492 10.7821 4.68754 10.7821C4.62589 10.7821 4.56484 10.7699 4.50789 10.7463C4.45094 10.7226 4.39921 10.688 4.35567 10.6444L1.07442 7.36311C0.986399 7.27509 0.936951 7.15571 0.936951 7.03123C0.936951 6.90676 0.986399 6.78738 1.07442 6.69936C1.16244 6.61134 1.28182 6.56189 1.40629 6.56189C1.53077 6.56189 1.65015 6.61134 1.73817 6.69936L4.68754 9.64967L10.9182 3.41811C10.9617 3.37446 11.0134 3.33982 11.0704 3.31619C11.1273 3.29256 11.1884 3.2804 11.25 3.2804C11.3117 3.2804 11.3728 3.29256 11.4297 3.31619C11.4866 3.33982 11.5384 3.37446 11.5819 3.41811Z" fill="white"/>
<path d="M5.85942 7.54029L5.01942 6.69935C4.9314 6.61134 4.81202 6.56189 4.68754 6.56189C4.56307 6.56189 4.44369 6.61134 4.35567 6.69935C4.26765 6.78737 4.2182 6.90675 4.2182 7.03123C4.2182 7.15571 4.26765 7.27509 4.35567 7.3631L5.19661 8.2031L5.85942 7.54029ZM6.79692 9.80342L7.63692 10.6444C7.68046 10.688 7.73219 10.7226 7.78914 10.7463C7.84609 10.7699 7.90714 10.7821 7.96879 10.7821C8.03045 10.7821 8.0915 10.7699 8.14845 10.7463C8.2054 10.7226 8.25713 10.688 8.30067 10.6444L14.8632 4.08186C14.9512 3.99384 15.0006 3.87446 15.0006 3.74998C15.0006 3.6255 14.9512 3.50613 14.8632 3.41811C14.7751 3.33009 14.6558 3.28064 14.5313 3.28064C14.4068 3.28064 14.2874 3.33009 14.1994 3.41811L7.96879 9.64967L7.45973 9.1406L6.79692 9.80342Z" fill="white"/>
</g>
<defs>
<clipPath id="clip0">
<rect width="15" height="15" fill="white"/>
</clipPath>
</defs>
</svg>
