<svg width="394" height="319" viewBox="0 0 394 319" fill="none" xmlns="http://www.w3.org/2000/svg">
<g clip-path="url(#clip0)">
<rect width="394" height="319" fill="white"/>
<path d="M286.073 40.6456C311.782 66.6278 325.183 99.4316 328.945 131.801C332.637 164.17 326.688 196.167 312.257 228.475C297.898 260.72 275.061 293.275 241.488 308.592C207.848 323.908 163.404 321.924 130.173 305.243C97.0191 288.563 74.9976 257.123 52.3658 224.568C29.734 192.013 6.41749 158.341 14.3492 131.739C22.2809 105.137 61.3912 85.6682 94.9634 60.9235C128.536 36.2432 156.502 6.29195 189.457 0.896983C222.415 -4.43567 260.364 14.6634 286.073 40.6456Z" fill="#27AE60"/>
<path d="M46.0857 259.575L23.7656 203.609L1.44464 147.642L66.0483 158.095L130.653 168.547L88.3692 214.061L46.0857 259.575Z" stroke="#2980B9" stroke-width="2" stroke-linecap="round" stroke-linejoin="round"/>
<path fill-rule="evenodd" clip-rule="evenodd" d="M24.7162 47.8744H233.676V230.329H24.7162V47.8744Z" fill="#EAF0FF"/>
<path fill-rule="evenodd" clip-rule="evenodd" d="M85.3212 77.8516H201.768V85.1406H85.3212V77.8516Z" fill="#B2C3FB"/>
<path fill-rule="evenodd" clip-rule="evenodd" d="M85.3212 110.348H201.768V117.637H85.3212V110.348Z" fill="#B2C3FB"/>
<path fill-rule="evenodd" clip-rule="evenodd" d="M85.3212 142.844H201.768V150.134H85.3212V142.844Z" fill="#B2C3FB"/>
<path d="M66.9588 74.5095L53.4538 86.0829L46.9913 80.5484" stroke="#B2C3FB" stroke-width="2" stroke-linecap="round" stroke-linejoin="round"/>
<path d="M66.9588 108.545L53.4538 120.118L46.9913 114.584" stroke="#B2C3FB" stroke-width="2" stroke-linecap="round" stroke-linejoin="round"/>
<path d="M66.9588 142.58L53.4538 154.154L46.9913 148.619" stroke="#B2C3FB" stroke-width="2" stroke-linecap="round" stroke-linejoin="round"/>
<path fill-rule="evenodd" clip-rule="evenodd" d="M85.3212 175.342H201.768V182.631H85.3212V175.342Z" fill="#F4F7FF"/>
<path fill-rule="evenodd" clip-rule="evenodd" d="M85.3212 207.839H201.768V215.128H85.3212V207.839Z" fill="#F4F7FF"/>
<path d="M292.468 194.739C292.468 169.674 314.873 149.354 342.512 149.354C370.151 149.354 392.555 169.674 392.555 194.739C392.555 219.804 370.15 240.124 342.512 240.124C314.874 240.124 292.468 219.805 292.468 194.739Z" stroke="#2980B9" stroke-width="3" stroke-linecap="round" stroke-linejoin="round"/>
<path fill-rule="evenodd" clip-rule="evenodd" d="M218.635 128.102C205.779 125.775 189.801 140.257 190.918 161.63L206.428 164.55C206.428 164.55 219.755 128.305 218.635 128.102Z" fill="#2980B9"/>
<path d="M189.191 151.711C188.811 154.292 188.691 156.899 188.832 159.5" stroke="black" stroke-linecap="round" stroke-linejoin="round"/>
<path d="M216.547 125.972C208.405 124.498 199.013 129.765 193.502 139.251" stroke="black" stroke-linecap="round" stroke-linejoin="round"/>
<path fill-rule="evenodd" clip-rule="evenodd" d="M248.456 119.36C296.991 119.36 306.381 170.253 299.933 241.15C278.89 249.153 227.187 253.257 204.333 240.637C193.585 213.344 187.343 119.36 248.456 119.36Z" fill="#2980B9"/>
<path fill-rule="evenodd" clip-rule="evenodd" d="M213.482 73.6949C213.482 55.0188 225.916 39.8784 241.255 39.8784C256.594 39.8784 269.028 55.0188 269.028 73.6949C269.028 92.3711 256.594 107.512 241.255 107.512C225.917 107.512 213.482 92.3718 213.482 73.6949Z" fill="white"/>
<path fill-rule="evenodd" clip-rule="evenodd" d="M236.065 73.7187C236.065 72.0865 236.812 70.7667 237.731 70.7667C238.651 70.7667 239.398 72.088 239.398 73.7187C239.398 75.3493 238.652 76.6692 237.731 76.6692C236.81 76.6692 236.065 75.3479 236.065 73.7187Z" fill="black"/>
<path d="M228.396 79.2137C228.343 81.0366 227.76 84.9723 224.96 87.5162" stroke="black" stroke-linecap="round" stroke-linejoin="round"/>
<path d="M234.742 94.8585C237.07 94.5714 239.978 93.7553 241.833 91.2596" stroke="black" stroke-linecap="round" stroke-linejoin="round"/>
<path d="M286.945 173.632C288.517 177.699 291.977 188.532 291.977 188.532C291.977 188.532 267.47 177.124 255.951 171.852" stroke="black" stroke-linecap="round" stroke-linejoin="round"/>
<path d="M227.251 175.625L224.325 184.373" stroke="black" stroke-linecap="round" stroke-linejoin="round"/>
<path d="M236.53 147.887L232.637 159.526" stroke="black" stroke-linecap="round" stroke-linejoin="round"/>
<path d="M256.105 245.85C235.616 247.037 213.687 245.226 200.855 238.14C192.829 217.76 187.316 160.199 210.478 132.347" stroke="black" stroke-linecap="round" stroke-linejoin="round"/>
<path d="M224.381 121.293C230.196 118.458 237.015 116.863 244.977 116.863C293.512 116.863 302.903 167.756 296.454 238.653C293.252 239.87 289.341 240.998 284.929 241.991" stroke="black" stroke-linecap="round" stroke-linejoin="round"/>
<path d="M295.455 237.708C295.455 242.441 294.646 313.27 294.646 313.27" stroke="#1B3C87" stroke-linecap="round" stroke-linejoin="round"/>
<path fill-rule="evenodd" clip-rule="evenodd" d="M235.715 162.792C232.789 162.792 220.137 164.254 227.3 174.863C231.404 180.943 233.098 179.194 234.819 177.271C236.159 177.904 238.226 179.398 239.558 180.399C239.548 180.419 239.541 180.439 239.531 180.459C243.15 183.019 290.909 220.833 300.732 223.1C310.554 225.367 321.6 216.557 325.845 209.931C330.533 202.623 321.645 172.976 320.076 169.706C318.507 166.437 289.758 176.949 289.758 176.949C289.758 176.949 294.414 189.579 295.642 194.8C292.933 193.418 250.219 174.484 244.656 168.663C244.648 168.68 244.636 168.71 244.626 168.726C242.59 166.838 237.967 162.792 235.715 162.792Z" fill="white"/>
<path d="M200.196 237.018L200.138 305.494" stroke="black" stroke-linecap="round" stroke-linejoin="round"/>
<path d="M236.376 280.478C239.033 290.779 241.947 302.197 244.759 313.27" stroke="#1B3C87" stroke-linecap="round" stroke-linejoin="round"/>
<path fill-rule="evenodd" clip-rule="evenodd" d="M265.049 87.6979C264.892 89.4183 260.781 118.432 262.256 128.756C258.725 131.48 234.295 131.881 234.798 127.8C235.641 120.965 237.433 110.354 235.904 104.95" fill="white"/>
<path d="M232.64 124.79C233.483 117.955 234.732 110.562 233.898 104.473" stroke="black" stroke-linecap="round" stroke-linejoin="round"/>
<path d="M262.561 88.833C262.402 90.5534 258.623 115.421 260.098 125.745C258.707 126.82 254.061 127.533 248.978 127.748" stroke="black" stroke-linecap="round" stroke-linejoin="round"/>
<path d="M251.27 101.429C247.593 103.617 243.461 104.841 239.092 104.841C229.418 104.841 220.898 98.8188 215.926 89.6832" stroke="black" stroke-linecap="round" stroke-linejoin="round"/>
<path d="M212.15 79.2709C211.595 76.5522 211.317 73.7928 211.319 71.0278C211.319 52.3509 223.753 37.2113 239.092 37.2113C254.431 37.2113 266.865 52.3509 266.865 71.0278C266.865 79.3414 264.401 86.9538 260.315 92.8429" stroke="black" stroke-linecap="round" stroke-linejoin="round"/>
<path fill-rule="evenodd" clip-rule="evenodd" d="M266.645 92.3206C269.76 92.8325 275.024 77.5697 276.099 68.3637C278.011 51.9636 259.046 31.0982 244.878 29.808C242.096 29.5551 238.955 32.1509 240.661 36.4946C237.225 33.2259 228.217 28.9029 220.438 27.9956C208.619 26.6187 202.908 33.7415 202.908 36.9145C202.908 40.0876 205.03 50.0192 209.272 53.0876C205.844 53.049 202.795 53.3346 202.413 55.8518C201.237 63.6142 206.089 70.6272 214.298 69.9105C214.87 65.5379 215.903 61.3047 217.592 58.4559C218.964 69.6627 250.38 65.9066 250.319 67.7776C250.081 74.985 259.513 74.9858 259.84 75.1638C267.124 79.1255 261.678 91.5023 266.645 92.3206Z" fill="black"/>
<path d="M200.305 36.6624C201.041 40.943 203.055 47.4805 206.354 49.8679C202.928 49.8293 199.877 50.1149 199.495 52.6321C198.483 59.318 201.94 65.4437 208.161 66.5625" stroke="black" stroke-linecap="round" stroke-linejoin="round"/>
<path d="M264.532 41.334C258.164 33.3417 249.398 27.2656 241.961 26.5883C239.18 26.3353 236.037 28.9304 237.743 33.2742C234.312 30.0054 225.301 25.6825 217.521 24.7759C212.402 24.1824 208.428 25.1765 205.569 26.7582" stroke="#1B3C87" stroke-linecap="round" stroke-linejoin="round"/>
<path d="M261.339 84.7393C261.512 87.0554 261.962 88.8085 263.728 89.0993C266.842 89.612 272.108 74.3492 273.181 65.1432C273.496 62.4487 273.246 59.6347 272.548 56.8074" stroke="black" stroke-linecap="round" stroke-linejoin="round"/>
<path d="M213.274 58.2823C213.642 57.2314 214.111 56.2118 214.676 55.2354C216.048 66.4422 247.463 62.6861 247.397 64.5571C247.36 65.6989 247.561 66.6603 247.938 67.4705" stroke="black" stroke-linecap="round" stroke-linejoin="round"/>
<path fill-rule="evenodd" clip-rule="evenodd" d="M253.276 71.8142C254.183 71.243 255.225 70.8735 256.319 70.7355C257.413 70.5976 258.527 70.695 259.571 71.0201C260.616 71.3451 261.561 71.8886 262.331 72.6065C263.101 73.3244 263.674 74.1966 264.003 75.1525C264.332 76.1085 264.409 77.1213 264.227 78.109C264.044 79.0967 263.608 80.0316 262.953 80.838C262.298 81.6444 261.443 82.2997 260.457 82.7509C259.472 83.2021 258.382 83.4365 257.278 83.4351C256.852 83.4353 256.426 83.4005 256.006 83.3312" fill="white"/>
<path d="M252.636 70.4833C253.543 69.9121 254.585 69.5425 255.679 69.4046C256.773 69.2666 257.887 69.3641 258.932 69.6891C259.976 70.0142 260.922 70.5576 261.692 71.2756C262.461 71.9935 263.034 72.8657 263.364 73.8216C263.693 74.7775 263.769 75.7903 263.587 76.778C263.404 77.7658 262.968 78.7007 262.313 79.5071C261.659 80.3135 260.804 80.9688 259.818 81.42C258.832 81.8712 257.743 82.1056 256.639 82.1042C256.212 82.1045 255.787 82.07 255.368 82.001" stroke="black" stroke-linecap="round" stroke-linejoin="round"/>
<path fill-rule="evenodd" clip-rule="evenodd" d="M169.774 160.816L220.837 168.212L208.49 238.328L157.427 230.933L169.774 160.816Z" fill="#B2C3FB"/>
<path d="M155.056 226.488L167.402 156.371L218.466 163.768L214.489 186.366" stroke="black" stroke-linecap="round" stroke-linejoin="round"/>
<path d="M209.939 212.19L206.118 233.884L171.294 228.839" stroke="black" stroke-linecap="round" stroke-linejoin="round"/>
<path fill-rule="evenodd" clip-rule="evenodd" d="M155.106 217.579C152.782 201.642 154.57 191.215 164.577 188.244C168.616 187.045 164.637 210.339 163.028 214.175C161.419 218.01 157.011 213.635 155.106 217.579Z" fill="white"/>
<path d="M153.488 200.425C152.378 197.12 153.012 190.01 165.526 185.987" stroke="black" stroke-linecap="round" stroke-linejoin="round"/>
<path d="M152.695 210.194C151.587 206.89 152.22 199.779 164.735 195.757" stroke="black" stroke-linecap="round" stroke-linejoin="round"/>
<path d="M153.409 218.599C152.3 215.294 152.933 208.183 165.447 204.16" stroke="black" stroke-linecap="round" stroke-linejoin="round"/>
<path d="M250.156 73.2616C250.675 72.1404 251.537 71.1767 252.638 70.4833" stroke="#1B3C87" stroke-linecap="round" stroke-linejoin="round"/>
<path d="M324.9 202.243C324.688 203.619 324.327 204.77 323.782 205.619C319.533 212.245 308.485 221.056 298.668 218.789C288.852 216.521 241.671 177.816 237.468 176.147" stroke="black" stroke-linecap="round" stroke-linejoin="round"/>
<path d="M318.013 165.395C318.82 167.079 321.568 175.753 323.404 184.771" stroke="black" stroke-linecap="round" stroke-linejoin="round"/>
<path d="M242.031 165.747C238.555 156.898 231.064 159.324 223.771 165.093" stroke="black" stroke-linecap="round" stroke-linejoin="round"/>
<path d="M233.973 166.887C231.928 166.751 226.864 168.493 224.55 170.292" stroke="black" stroke-linecap="round" stroke-linejoin="round"/>
<path d="M235.452 172.406C233.243 172.362 229.644 173.973 226.879 175.202" stroke="black" stroke-linecap="round" stroke-linejoin="round"/>
<path fill-rule="evenodd" clip-rule="evenodd" d="M282.259 124.89C305.06 117.861 326.984 162.53 325.911 167.213C324.837 171.896 288.947 181.34 284.81 178.383C280.673 175.426 269.052 128.961 282.259 124.89Z" fill="#2980B9"/>
<path d="M290.936 175.463C286.489 176.136 283.049 176.245 281.93 175.445C280.112 174.144 276.846 164.441 274.88 153.625" stroke="black" stroke-linecap="round" stroke-linejoin="round"/>
<path d="M286.589 121.352C306.578 123.961 323.99 160.09 323.03 164.274C322.445 166.829 311.496 170.803 300.997 173.399" stroke="black" stroke-linecap="round" stroke-linejoin="round"/>
<path fill-rule="evenodd" clip-rule="evenodd" d="M297.076 313.27L297.15 241.767L202.778 241.222L202.445 313.27H297.076Z" fill="black"/>
</g>
<defs>
<clipPath id="clip0">
<rect width="394" height="319" fill="white"/>
</clipPath>
</defs>
</svg>
