<svg width="120" height="109" viewBox="0 0 148 109" fill="none" xmlns="http://www.w3.org/2000/svg">
<ellipse cx="9.54839" cy="8.68035" rx="9.54839" ry="8.68035" fill="#5BF59C"/>
<ellipse cx="41.6657" cy="8.68035" rx="9.54839" ry="8.68035" fill="#5BF59C"/>
<ellipse cx="73.783" cy="8.68035" rx="9.54839" ry="8.68035" fill="#5BF59C"/>
<ellipse cx="105.9" cy="8.68035" rx="9.54839" ry="8.68035" fill="#5BF59C"/>
<ellipse cx="138.018" cy="8.68035" rx="9.54839" ry="8.68035" fill="#5BF59C"/>
<ellipse cx="9.98241" cy="39.0615" rx="9.54839" ry="8.68035" fill="#5BF59C"/>
<ellipse cx="42.0997" cy="39.0615" rx="9.54839" ry="8.68035" fill="#5BF59C"/>
<ellipse cx="74.217" cy="39.0615" rx="9.54839" ry="8.68035" fill="#5BF59C"/>
<ellipse cx="106.334" cy="39.0615" rx="9.54839" ry="8.68035" fill="#5BF59C"/>
<ellipse cx="138.452" cy="39.0615" rx="9.54839" ry="8.68035" fill="#5BF59C"/>
<ellipse cx="9.54839" cy="69.4428" rx="9.54839" ry="8.68035" fill="#5BF59C"/>
<ellipse cx="41.6657" cy="69.4428" rx="9.54839" ry="8.68035" fill="#5BF59C"/>
<ellipse cx="73.783" cy="69.4428" rx="9.54839" ry="8.68035" fill="#5BF59C"/>
<ellipse cx="105.9" cy="69.4428" rx="9.54839" ry="8.68035" fill="#5BF59C"/>
<ellipse cx="138.018" cy="69.4428" rx="9.54839" ry="8.68035" fill="#5BF59C"/>
<ellipse cx="9.98241" cy="99.8242" rx="9.54839" ry="8.68035" fill="#5BF59C"/>
<ellipse cx="42.0997" cy="99.8242" rx="9.54839" ry="8.68035" fill="#5BF59C"/>
<ellipse cx="74.217" cy="99.8242" rx="9.54839" ry="8.68035" fill="#5BF59C"/>
<ellipse cx="106.334" cy="99.8242" rx="9.54839" ry="8.68035" fill="#5BF59C"/>
<ellipse cx="138.452" cy="99.8242" rx="9.54839" ry="8.68035" fill="#5BF59C"/>
</svg>
