<svg width="13" height="12" viewBox="0 0 13 12" fill="none" xmlns="http://www.w3.org/2000/svg">
<g clip-path="url(#clip0)">
<path fill-rule="evenodd" clip-rule="evenodd" d="M6.21965 0.888273C6.2524 0.855432 6.29132 0.829376 6.33416 0.811597C6.37701 0.793819 6.42294 0.784668 6.46933 0.784668C6.51571 0.784668 6.56164 0.793819 6.60449 0.811597C6.64733 0.829376 6.68625 0.855432 6.719 0.888273L10.9508 5.12012C10.9836 5.15293 11.0095 5.19187 11.0272 5.23471C11.0449 5.27755 11.0539 5.32345 11.0538 5.3698V10.3069C11.0538 10.4005 11.0167 10.4902 10.9505 10.5563C10.8844 10.6224 10.7947 10.6596 10.7012 10.6596H7.52729C7.43376 10.6596 7.34406 10.6224 7.27792 10.5563C7.21179 10.4902 7.17463 10.4005 7.17463 10.3069V7.48572H5.76402V10.3069C5.76402 10.4005 5.72686 10.4902 5.66073 10.5563C5.59459 10.6224 5.50489 10.6596 5.41136 10.6596H2.23748C2.14395 10.6596 2.05425 10.6224 1.98812 10.5563C1.92198 10.4902 1.88483 10.4005 1.88483 10.3069V5.3698C1.88474 5.32345 1.8938 5.27755 1.91147 5.23471C1.92913 5.19187 1.95507 5.15293 1.9878 5.12012L6.21965 0.888273ZM2.59013 5.51579V9.95429H5.05871V7.13306C5.05871 7.03953 5.09587 6.94983 5.162 6.8837C5.22814 6.81756 5.31783 6.78041 5.41136 6.78041H7.52729C7.62082 6.78041 7.71052 6.81756 7.77665 6.8837C7.84279 6.94983 7.87994 7.03953 7.87994 7.13306V9.95429H10.3485V5.51579L6.46933 1.6366L2.59013 5.51579Z" fill="white"/>
<path fill-rule="evenodd" clip-rule="evenodd" d="M9.99582 1.84313V4.31171L8.58521 2.90109V1.84313C8.58521 1.7496 8.62236 1.6599 8.68849 1.59377C8.75463 1.52763 8.84433 1.49048 8.93786 1.49048H9.64317C9.7367 1.49048 9.82639 1.52763 9.89253 1.59377C9.95867 1.6599 9.99582 1.7496 9.99582 1.84313Z" fill="white"/>
</g>
<defs>
<clipPath id="clip0">
<rect width="11.2849" height="11.2849" fill="white" transform="translate(0.826843 0.079834)"/>
</clipPath>
</defs>
</svg>
