<svg width="12" height="12" viewBox="0 0 12 12" fill="none" xmlns="http://www.w3.org/2000/svg">
<path d="M11.6265 1.45493C11.6966 1.52522 11.7359 1.62043 11.7359 1.71968C11.7359 1.81893 11.6966 1.91414 11.6265 1.98443L10.8443 2.76743L9.34425 1.26743L10.1265 0.484429C10.1968 0.414127 10.2922 0.374634 10.3916 0.374634C10.4911 0.374634 10.5864 0.414127 10.6568 0.484429L11.6265 1.45418V1.45493ZM10.314 3.29693L8.814 1.79693L3.70425 6.90743C3.66297 6.9487 3.6319 6.99903 3.6135 7.05443L3.00975 8.86493C2.9988 8.89793 2.99725 8.93334 3.00526 8.96717C3.01327 9.00101 3.03054 9.03196 3.05513 9.05655C3.07972 9.08114 3.11066 9.0984 3.1445 9.10642C3.17834 9.11443 3.21374 9.11288 3.24675 9.10193L5.05725 8.49818C5.11257 8.48 5.1629 8.44919 5.20425 8.40818L10.314 3.29768V3.29693Z" fill="white"/>
<path fill-rule="evenodd" clip-rule="evenodd" d="M0.75 10.125C0.75 10.4234 0.868526 10.7095 1.0795 10.9205C1.29048 11.1315 1.57663 11.25 1.875 11.25H10.125C10.4234 11.25 10.7095 11.1315 10.9205 10.9205C11.1315 10.7095 11.25 10.4234 11.25 10.125V5.625C11.25 5.52554 11.2105 5.43016 11.1402 5.35984C11.0698 5.28951 10.9745 5.25 10.875 5.25C10.7755 5.25 10.6802 5.28951 10.6098 5.35984C10.5395 5.43016 10.5 5.52554 10.5 5.625V10.125C10.5 10.2245 10.4605 10.3198 10.3902 10.3902C10.3198 10.4605 10.2245 10.5 10.125 10.5H1.875C1.77554 10.5 1.68016 10.4605 1.60984 10.3902C1.53951 10.3198 1.5 10.2245 1.5 10.125V1.875C1.5 1.77554 1.53951 1.68016 1.60984 1.60984C1.68016 1.53951 1.77554 1.5 1.875 1.5H6.75C6.84946 1.5 6.94484 1.46049 7.01517 1.39017C7.08549 1.31984 7.125 1.22446 7.125 1.125C7.125 1.02554 7.08549 0.930161 7.01517 0.859835C6.94484 0.789509 6.84946 0.75 6.75 0.75H1.875C1.57663 0.75 1.29048 0.868526 1.0795 1.0795C0.868526 1.29048 0.75 1.57663 0.75 1.875V10.125Z" fill="white"/>
</svg>
