<svg width="20" height="20" viewBox="0 0 20 20" fill="none" xmlns="http://www.w3.org/2000/svg">
<path fill-rule="evenodd" clip-rule="evenodd" d="M1.25 17.5C1.25 17.5 0 17.5 0 16.25C0 15 1.25 11.25 7.5 11.25C13.75 11.25 15 15 15 16.25C15 17.5 13.75 17.5 13.75 17.5H1.25ZM7.5 10C8.49456 10 9.44839 9.60491 10.1517 8.90165C10.8549 8.19839 11.25 7.24456 11.25 6.25C11.25 5.25544 10.8549 4.30161 10.1517 3.59835C9.44839 2.89509 8.49456 2.5 7.5 2.5C6.50544 2.5 5.55161 2.89509 4.84835 3.59835C4.14509 4.30161 3.75 5.25544 3.75 6.25C3.75 7.24456 4.14509 8.19839 4.84835 8.90165C5.55161 9.60491 6.50544 10 7.5 10ZM16.875 6.25C17.0408 6.25 17.1997 6.31585 17.3169 6.43306C17.4342 6.55027 17.5 6.70924 17.5 6.875V9.375C17.5 9.54076 17.4342 9.69973 17.3169 9.81694C17.1997 9.93415 17.0408 10 16.875 10H14.375C14.2092 10 14.0503 9.93415 13.9331 9.81694C13.8158 9.69973 13.75 9.54076 13.75 9.375C13.75 9.20924 13.8158 9.05027 13.9331 8.93306C14.0503 8.81585 14.2092 8.75 14.375 8.75H16.25V6.875C16.25 6.70924 16.3158 6.55027 16.4331 6.43306C16.5503 6.31585 16.7092 6.25 16.875 6.25Z" fill="black"/>
<path fill-rule="evenodd" clip-rule="evenodd" d="M16.25 9.375C16.25 9.20924 16.3158 9.05027 16.4331 8.93306C16.5503 8.81585 16.7092 8.75 16.875 8.75H19.375C19.5408 8.75 19.6997 8.81585 19.8169 8.93306C19.9342 9.05027 20 9.20924 20 9.375C20 9.54076 19.9342 9.69973 19.8169 9.81694C19.6997 9.93415 19.5408 10 19.375 10H17.5V11.875C17.5 12.0408 17.4342 12.1997 17.3169 12.3169C17.1997 12.4342 17.0408 12.5 16.875 12.5C16.7092 12.5 16.5503 12.4342 16.4331 12.3169C16.3158 12.1997 16.25 12.0408 16.25 11.875V9.375Z" fill="black"/>
</svg>
