<svg width="394" height="319" viewBox="0 0 394 319" fill="none" xmlns="http://www.w3.org/2000/svg">
<g clip-path="url(#clip0)">
<path d="M307.522 63.2195C339.569 98.0715 364.332 134.947 366.73 174C369.048 213.053 348.926 254.362 316.879 281.98C284.915 309.597 240.944 323.524 203.267 317.688C165.671 311.775 134.204 286.102 94.2891 258.485C54.4568 230.869 6.09713 201.306 7.58725 173.222C8.99506 145.06 60.2539 118.298 100.168 83.3684C140.082 48.5162 168.569 5.57308 202.437 0.516392C236.306 -4.54029 275.558 28.3669 307.522 63.2195Z" fill="#27AE60"/>
<path d="M42.4698 124.109L65.1543 101.083L87.8386 78.0576L97.7227 108.027L107.608 137.998L75.0364 131.055L42.4698 124.109Z" stroke="#2980B9" stroke-width="2" stroke-linecap="round" stroke-linejoin="round"/>
<path d="M337.14 74.8996L324.448 118.322L366.179 110.724L337.14 74.8996Z" stroke="#2980B9" stroke-width="2" stroke-linecap="round" stroke-linejoin="round"/>
<path d="M73.7122 78.4604H179.958V182.883H73.7122V78.4604Z" fill="#D7E0FF"/>
<path opacity="0.67" d="M112.471 66.5049H319.188V206.46H112.471V66.5049Z" fill="white"/>
<path d="M241.885 103.152C241.885 89.3754 253.774 78.2076 268.437 78.2076C283.101 78.2076 294.991 89.3754 294.991 103.152C294.991 116.929 283.102 128.097 268.437 128.097C253.773 128.097 241.885 116.929 241.885 103.152Z" fill="white"/>
<path d="M195.287 226.306C195.287 212.241 207.425 200.839 222.397 200.839C237.368 200.839 249.505 212.241 249.505 226.306C249.505 240.372 237.368 251.773 222.397 251.773C207.426 251.773 195.287 240.372 195.287 226.306Z" stroke="#2980B9" stroke-width="2" stroke-linecap="round" stroke-linejoin="round"/>
<path d="M278.897 55.2607V74.5664H279.025V95.1756L263.698 79.7798H219.624V55.2607H278.897Z" fill="white"/>
<path d="M144.732 88.2564V107.562H144.603V128.171L159.931 112.776H204.006V88.2564H144.732Z" fill="white"/>
<path d="M307.265 137.461C307.265 151.269 313.653 153.772 313.653 156.277C313.653 158.781 310.757 172.514 309.93 174.318C312.086 177.153 327.292 178.627 330.193 177.89C330.428 175.202 334.073 157.712 334.896 156.534C335.72 155.356 344.93 148.431 344.93 142.69C344.93 129.839 344.029 112.756 334.936 112.756C323.883 112.755 307.265 117.8 307.265 137.461Z" fill="white"/>
<path d="M353.146 178.543C346.036 178.709 330.673 181.297 330.673 181.297C330.585 188.348 332.631 263.084 332.94 274.326H376.815L392.359 189.529C392.359 188.086 392.056 186.658 391.469 185.325C390.881 183.992 390.02 182.781 388.934 181.761C387.848 180.741 386.56 179.932 385.141 179.38C383.722 178.828 382.201 178.543 380.666 178.543C380.666 178.543 361.782 178.801 354.449 178.543C354.055 178.531 353.62 178.532 353.146 178.543Z" fill="#3C3744"/>
<path d="M122.496 242.036C124.998 240.74 149.178 223.929 150.5 222.357C151.822 220.784 156.568 211.801 156.967 211.215C157.366 210.629 159.905 209.533 160.222 209.786C162.17 211.339 159.048 216.629 158.677 217.437C160.491 215.882 171.963 207.455 173.369 207.869C183.475 210.85 179.693 223.52 173.341 226.608C171.603 227.454 162.088 230.866 161.176 231.613C160.263 232.361 120.237 263.669 119.34 264.268C118.84 262.11 119.989 243.33 122.496 242.036Z" fill="white"/>
<path d="M267.399 198.112C265.676 200.507 261.319 206.483 259.596 208.816C241.063 185.908 221.875 172.643 216.839 150.037C211.962 147.121 212.242 157.526 215.906 165.314C210.186 168.751 204.77 172.199 206.433 174.748C212.806 184.494 214.724 181.428 217.104 181.628C219.484 181.829 238.553 218.553 244.047 224.329C248.096 228.587 251.243 233.565 263.757 238.623C265.103 227.863 273.538 202.385 275.259 200.45C273.713 199.41 269.121 195.717 267.399 198.112Z" fill="white"/>
<path d="M273.55 203.042C267.811 198.93 263.932 195.693 263.83 194.173C263.587 190.579 286.516 159.953 302.117 169.665C308.736 174.184 284.9 210.995 273.55 203.042Z" fill="#2980B9"/>
<path d="M286.151 168.239C291.178 165.897 296.336 165.309 300.874 168.134" stroke="black" stroke-linecap="round" stroke-linejoin="round"/>
<path d="M272.308 201.51C266.483 197.508 262.69 194.162 262.588 192.642C262.483 191.088 266.707 184.478 272.802 178.266" stroke="black" stroke-linecap="round" stroke-linejoin="round"/>
<path d="M316.648 167.251C270.766 167.644 261.612 241.666 259.488 274.327H346.349C357.309 242.288 365.412 173.933 323.855 167.764C321.472 167.408 319.062 167.236 316.648 167.251Z" fill="#2980B9"/>
<path d="M14.1549 176.362C12.6193 176.362 11.0988 176.646 9.68012 177.198C8.26144 177.75 6.97243 178.56 5.88665 179.58C4.80087 180.6 3.9396 181.811 3.35203 183.144C2.76445 184.476 2.46207 185.905 2.46216 187.348C2.46216 187.348 10.8734 251.327 13.9399 274.649H77.1629C77.1572 270.886 77.0341 191.528 76.387 176.362H14.1549Z" fill="#3C3744"/>
<path d="M92.3923 173.736C50.3261 173.736 42.0134 242.664 43.2378 274.648H120.339C127.203 242.977 128.342 173.736 92.3923 173.736Z" fill="#2980B9"/>
<path d="M121.172 223.936C122.214 242.622 120.102 262.077 117.125 274.513" stroke="black" stroke-linecap="round" stroke-linejoin="round"/>
<path d="M100.327 173.729C107.817 177.474 112.919 185.294 116.23 195.168" stroke="black" stroke-linecap="round" stroke-linejoin="round"/>
<path d="M66.7513 180.376C70.0767 177.292 73.784 174.839 77.9082 173.193" stroke="black" stroke-linecap="round" stroke-linejoin="round"/>
<path d="M121.683 240.062C124.509 238.665 146.878 223.129 148.957 221.068C151.036 219.007 154.493 210.558 156.005 209.308C157.517 208.058 158.524 207.373 159.424 208.305C160.323 209.237 158.743 213.912 156.784 216.365C160.477 212.764 169.163 207.052 172.233 206.051" stroke="black" stroke-linecap="round" stroke-linejoin="round"/>
<path d="M135.771 249.128C127.891 255.507 120.761 261.321 119.507 262.377" stroke="black" stroke-linecap="round" stroke-linejoin="round"/>
<path d="M172.357 224.507C168.912 226.156 162.112 228.562 158.968 230.67C158.072 231.272 154.704 233.917 150.285 237.443" stroke="black" stroke-linecap="round" stroke-linejoin="round"/>
<path d="M161.651 217.034C162.723 216.2 166.048 213.969 169.36 211.955C172.436 210.08 175.503 208.398 176.745 208.193" stroke="black" stroke-linecap="round" stroke-linejoin="round"/>
<path d="M164.321 219.951C165.394 219.117 168.718 216.884 172.03 214.871C175.107 213 178.173 211.314 179.416 211.11" stroke="black" stroke-linecap="round" stroke-linejoin="round"/>
<path d="M165.608 223.895C166.561 223.143 169.512 221.13 172.453 219.314C175.184 217.625 177.907 216.109 179.01 215.922" stroke="black" stroke-linecap="round" stroke-linejoin="round"/>
<path d="M334.911 156.314C334.074 158.557 330.305 175.154 330.026 177.772C326.486 178.969 311.921 176.982 310.089 174.364C311.881 169.427 313.785 159.634 313.625 155.519" fill="white"/>
<path d="M308.995 172.874C310.786 167.937 312.69 158.143 312.531 154.03" stroke="black" stroke-linecap="round" stroke-linejoin="round"/>
<path d="M333.815 154.823C332.979 157.067 329.21 173.664 328.932 176.282C327.211 176.863 322.892 176.694 318.697 176.065" stroke="black" stroke-linecap="round" stroke-linejoin="round"/>
<path d="M307.674 127.444C308.799 124.288 310.468 121.202 312.174 118.87" stroke="black" stroke-linecap="round" stroke-linejoin="round"/>
<path d="M325.994 158.044C324.074 158.407 322.127 158.419 320.21 158.034C311.236 156.231 305.524 146.832 306.031 135.882" stroke="black" stroke-linecap="round" stroke-linejoin="round"/>
<path d="M330.819 168.099C362.922 182.612 354.671 245.859 344.225 274.488" stroke="black" stroke-linecap="round" stroke-linejoin="round"/>
<path d="M265.493 223.466C272.529 195.87 285.762 169.027 310.648 165.431" stroke="black" stroke-linecap="round" stroke-linejoin="round"/>
<path d="M257.977 274.518C258.367 267.939 259.088 259.331 260.413 249.83" stroke="black" stroke-linecap="round" stroke-linejoin="round"/>
<path d="M340.289 246.452C340.868 254.495 341.498 261.922 341.983 264.139C339.423 267.064 333.468 274.493 333.468 274.493" stroke="black" stroke-linecap="round" stroke-linejoin="round"/>
<path d="M338.679 221.9C338.753 222.908 338.967 226.443 339.259 231.084" stroke="black" stroke-linecap="round" stroke-linejoin="round"/>
<path d="M265.793 196.684C264.934 197.864 258.142 207.346 258.142 207.346C258.142 207.346 227.76 173.571 225.7 170.924C219.541 163.018 216.604 153.362 216.266 151.241C215.944 149.237 214.914 146.871 213.129 147.98C210.311 149.976 212.153 160.182 214.317 163.669" stroke="black" stroke-linecap="round" stroke-linejoin="round"/>
<path d="M210.795 164.836C210.868 166.596 212.59 172.006 215.365 174.46" stroke="black" stroke-linecap="round" stroke-linejoin="round"/>
<path d="M207.495 167.964C207.753 169.709 210.035 174.932 213.057 177.117" stroke="black" stroke-linecap="round" stroke-linejoin="round"/>
<path d="M204.221 171.167C204.591 172.894 207.203 177.978 210.359 179.988" stroke="black" stroke-linecap="round" stroke-linejoin="round"/>
<path d="M235.091 212.419C228.8 201.924 223.461 190.23 216.925 181.671" stroke="black" stroke-linecap="round" stroke-linejoin="round"/>
<path d="M262.476 236.996C256.659 235.681 251.767 232.703 247.487 228.687" stroke="black" stroke-linecap="round" stroke-linejoin="round"/>
<path d="M311.067 129.569C311.53 127.505 313.191 126.087 314.779 126.401C316.367 126.715 317.279 128.642 316.817 130.706" stroke="black" stroke-linecap="round" stroke-linejoin="round"/>
<path d="M326.273 132.884C326.736 130.82 328.398 129.402 329.986 129.715C331.574 130.029 332.485 131.957 332.023 134.02" stroke="black" stroke-linecap="round" stroke-linejoin="round"/>
<path d="M319.543 133.778C318.6 135.004 316.132 137.737 314.968 138.265" stroke="black" stroke-linecap="round" stroke-linejoin="round"/>
<path d="M320.187 142.472C321.538 142.728 324.482 142.908 327.46 142.379C328.075 144.43 327.46 148.9 321.909 149.647" stroke="black" stroke-linecap="round" stroke-linejoin="round"/>
<path d="M39.3505 174.651H74.7334" stroke="black" stroke-linecap="round" stroke-linejoin="round"/>
<path d="M12.4877 274.496L0.804626 185.636C0.804626 184.193 1.1071 182.764 1.69479 181.431C2.28248 180.099 3.14386 178.888 4.22977 177.868C5.31566 176.847 6.60481 176.038 8.02361 175.486C9.44236 174.934 10.963 174.65 12.4986 174.651H16.9041" stroke="black" stroke-linecap="round" stroke-linejoin="round"/>
<path d="M376.724 177.188H352.25" stroke="black" stroke-linecap="round" stroke-linejoin="round"/>
<path d="M374.229 274.513L388.113 199.339" stroke="black" stroke-linecap="round" stroke-linejoin="round"/>
<path d="M142.253 118.344L142.24 125.535L158.069 110.343H201.704V85.796H195.447" stroke="#2980B9" stroke-linecap="round" stroke-linejoin="round"/>
<path d="M181.691 85.796H142.265V106.22" stroke="#2980B9" stroke-linecap="round" stroke-linejoin="round"/>
<path d="M149.167 93.2318H192.315" stroke="#2980B9" stroke-linecap="round" stroke-linejoin="round"/>
<path d="M149.167 102.811H164.23" stroke="#2980B9" stroke-linecap="round" stroke-linejoin="round"/>
<path d="M268.088 53.0014H276.307V77.5489L276.331 92.7409L260.504 77.5489H216.868V74.2467" stroke="#2980B9" stroke-linecap="round" stroke-linejoin="round"/>
<path d="M216.868 64.7597V53.0014H249.77" stroke="#2980B9" stroke-linecap="round" stroke-linejoin="round"/>
<path d="M269.404 60.4371H226.259" stroke="#2980B9" stroke-linecap="round" stroke-linejoin="round"/>
<path d="M241.595 70.0165H226.532" stroke="#2980B9" stroke-linecap="round" stroke-linejoin="round"/>
<path d="M32.2788 216.739L32.3233 216.847C30.7906 220.074 17.0554 256.605 17.6592 259.632C18.2662 262.679 21.4854 268.05 23.8528 269.292C24.9349 269.861 35.7728 272.042 48.6995 274.649H126.66C125.067 270.84 118.412 267.698 112.254 267.686C110.166 267.622 106.897 267.755 104.524 270.304C81.0375 260.121 54.7284 254.3 47.08 252.429L46.2432 250.394C48.7864 245.824 56.4535 232.599 57.524 230.54C53.4494 228.594 32.5595 216.897 32.378 216.793L32.3644 216.757C32.3644 216.761 32.3561 216.774 32.3541 216.778L32.2788 216.739Z" fill="white"/>
<path d="M20.5049 244.175C18.1877 251.035 16.4838 256.683 16.7072 257.796C17.3142 260.843 20.5314 266.212 22.8989 267.456C24.2082 268.143 39.5449 271.21 55.9038 274.53" stroke="black" stroke-linecap="round" stroke-linejoin="round"/>
<path d="M31.2959 214.905C30.6921 216.136 27.7504 223.801 24.6658 232.334" stroke="black" stroke-linecap="round" stroke-linejoin="round"/>
<path d="M56.7605 228.581C55.175 231.006 44.8753 249.285 44.6158 250.048C49.4861 251.385 78.416 257.357 103.763 268.348C106.137 265.799 109.404 265.665 111.493 265.731C118.602 265.743 126.256 269.198 126.256 274.499" stroke="black" stroke-linecap="round" stroke-linejoin="round"/>
<path d="M68.2157 183.985C85.7484 193.615 67.3737 230.253 62.6297 231.418C53.3071 232.023 31.8385 219.378 29.7723 214.26C27.706 209.141 50.9164 174.481 68.2157 183.985Z" fill="#2980B9"/>
<path d="M73.4974 205.225C70.8864 216.937 64.1495 228.317 61.5386 228.96C52.216 229.564 30.7474 216.919 28.6811 211.8C27.9241 209.925 30.5614 204.08 35.0582 197.898" stroke="black" stroke-linecap="round" stroke-linejoin="round"/>
<path d="M45.8956 186.301C52.6247 180.873 60.3317 177.792 67.1272 181.524C69.8307 183.009 71.6824 185.139 72.8609 187.681" stroke="black" stroke-linecap="round" stroke-linejoin="round"/>
<path d="M78.5397 181.257C81.0929 174.737 80.6982 152.822 80.445 150.654C80.1399 148.037 78.0433 129.168 83.0786 125.181C88.1145 121.195 95.8544 116.728 100.423 117.035C104.992 117.341 118.59 130.195 118.59 145.759C118.59 161.323 103.527 168.757 99.9935 168.86C99.5106 172.315 99.5483 181.566 99.5483 184.917C98.0996 186.222 82.2429 185.783 78.5397 181.257Z" fill="white"/>
<path d="M81.0545 137.011C78.694 136.875 76.8606 138.876 74.8899 140.785C73.124 128.504 79.2836 106.907 88.1223 105.43C89.6414 105.486 89.832 107.377 89.3889 109.042C94.9327 104.292 105.347 101.652 109.767 101.617C115.496 101.617 117.521 105.861 117.521 107.318C117.521 111.007 114.946 116.518 113.999 117.945C115.515 117.188 116.729 116.912 117.899 116.912C120.846 116.912 121.568 121.206 121.568 122.485C121.568 126.951 116.535 131.495 114.037 131.495C112.866 131.495 109.63 129.783 108.649 128.504C108.994 129.454 109.378 129.719 109.393 131.179C109.403 132.383 107.541 133.044 106.431 133.044C103.495 133.044 97.6729 127.662 92.3475 127.662C90.5752 127.662 88.3392 130.048 88.3392 131.392C88.3392 132.737 89.0874 139.086 88.6372 139.307C87.2618 140.324 86.6238 137.297 81.1654 136.968" fill="black"/>
<path d="M114.444 153.531C111.042 161.434 104.089 166.848 96.0621 166.848C91.9976 166.848 88.2091 165.457 85.0159 163.063" stroke="black" stroke-linecap="round" stroke-linejoin="round"/>
<path d="M113.67 129.942C115.698 133.707 116.666 137.747 116.666 142.538C116.667 143.657 116.602 144.774 116.473 145.886" stroke="black" stroke-linecap="round" stroke-linejoin="round"/>
<path d="M97.6487 182.933C97.4268 179.078 97.552 169.029 98.1067 166.841" stroke="black" stroke-linecap="round" stroke-linejoin="round"/>
<path d="M78.5091 169.049C78.1869 172.988 77.6528 176.675 76.7966 179.217C78.428 181.014 82.8019 182.389 87.3535 183.032" stroke="black" stroke-linecap="round" stroke-linejoin="round"/>
<path d="M78.4977 148.932C78.7481 150.056 78.9984 155.273 78.8839 161.28" stroke="black" stroke-linecap="round" stroke-linejoin="round"/>
<path d="M93.1426 137.767C93.1426 136.605 93.6753 135.662 94.3325 135.662C94.9896 135.662 95.5216 136.605 95.5216 137.767C95.5216 138.93 94.9889 139.874 94.3325 139.874C93.676 139.874 93.1426 138.931 93.1426 137.767Z" fill="black"/>
<path d="M110.063 138.61C110.063 137.447 110.595 136.504 111.252 136.504C111.909 136.504 112.441 137.447 112.441 138.61C112.441 139.773 111.909 140.717 111.252 140.717C110.594 140.717 110.063 139.774 110.063 138.61Z" fill="black"/>
<path d="M105.296 143.332C105.574 145.188 107.189 148.298 108.969 149.5" stroke="black" stroke-linecap="round" stroke-linejoin="round"/>
<path d="M104.322 153.996C103.099 153.84 99.2026 151.879 98.4239 150.468C96.9766 151.121 96.2533 155.747 99.2026 156.454" stroke="black" stroke-linecap="round" stroke-linejoin="round"/>
<path d="M113.697 129.935C113.392 130.043 113.069 130.103 112.743 130.111C110.385 130.111 106.428 126.391 106.428 126.391C107.317 128.439 107.851 129.024 107.851 129.86C107.851 130.695 106.738 131.613 105.093 131.656C101.087 131.763 96.6616 126.291 91.0382 126.291C89.5724 126.291 86.7084 128.176 86.7084 130.454C86.7084 131.991 87.2233 136.41 87.2233 137.469C87.2233 137.893 86.9659 138.175 86.4858 138.364" stroke="black" stroke-width="3.69" stroke-linecap="round" stroke-linejoin="round"/>
<path d="M105.382 100.62C106.275 100.506 107.175 100.447 108.077 100.444C112.435 100.444 115.948 103.202 115.948 106.294C115.948 109.386 113.503 115.486 111.856 116.949C114.036 116.029 114.658 115.695 116.169 115.695C119.356 115.695 119.95 118.87 119.95 121.251C119.95 125.432 116.207 129.105 113.7 129.934" stroke="black" stroke-width="3.69" stroke-linecap="round" stroke-linejoin="round"/>
<path d="M78.1635 112.726C81.031 107.075 84.38 104.078 85.934 104.078C88.9345 104.078 87.9616 107.049 87.84 108.002C88.9345 106.947 93.2344 104.229 98.4254 102.358" stroke="black" stroke-width="3.69" stroke-linecap="round" stroke-linejoin="round"/>
<path d="M73.2841 132.924C73.4924 127.229 74.4973 122.308 75.8735 118.222" stroke="black" stroke-width="3.69" stroke-linecap="round" stroke-linejoin="round"/>
<path d="M82.4207 149.599C81.1192 149.796 79.785 149.653 78.5653 149.184C77.3449 148.714 76.2867 147.939 75.5058 146.941C74.7249 145.943 74.2519 144.762 74.1396 143.528C74.0272 142.295 74.279 141.056 74.8678 139.947C75.4567 138.839 76.3592 137.905 77.4765 137.248C78.5938 136.59 79.8824 136.236 81.2003 136.222C82.5181 136.209 83.8153 136.536 84.9475 137.171C86.0798 137.804 87.0043 138.72 87.6188 139.815" fill="white"/>
<path d="M81.5957 148.953C80.2942 149.151 78.96 149.007 77.7403 148.537C76.5199 148.069 75.4617 147.293 74.6808 146.294C73.8999 145.297 73.4269 144.116 73.3146 142.882C73.2022 141.649 73.454 140.409 74.0428 139.301C74.631 138.193 75.5335 137.259 76.6508 136.602C77.768 135.944 79.0567 135.59 80.3753 135.576C81.6931 135.562 82.9896 135.89 84.1225 136.525C85.2548 137.159 86.1786 138.074 86.7931 139.169" stroke="black" stroke-linecap="round" stroke-linejoin="round"/>
<path d="M367.969 219.504C362.723 222.035 352.649 223.512 339.904 223.93C340.258 230.96 341.97 253.125 342.881 265.289C340.897 268.008 337.999 271.558 335.692 274.326H357.398C360.797 269.187 365.494 261.815 366.19 260.058C367.261 257.358 367.563 231.222 367.969 219.504Z" fill="white"/>
<path d="M366.912 217.248C366.815 220.465 365.851 256.978 365.032 259.243C364.213 261.508 357.565 271.86 355.441 274.542" stroke="black" stroke-linecap="round" stroke-linejoin="round"/>
<path d="M344.885 176.665C362.504 173.051 374.598 213.277 372.02 216.659C369.442 220.042 337.689 224.949 334.854 222.525C332.019 220.101 330.131 179.691 344.885 176.665Z" fill="#2980B9"/>
<path d="M349.288 220.862C341.635 221.922 334.563 222.307 333.293 221.221C331.63 219.799 330.293 205.301 332.451 192.949" stroke="black" stroke-linecap="round" stroke-linejoin="round"/>
<path d="M346.214 175.152C362.243 176.113 372.893 212.161 370.46 215.355C369.751 216.286 366.832 217.332 362.916 218.31" stroke="black" stroke-linecap="round" stroke-linejoin="round"/>
<path d="M348.633 140.464C353.158 136.251 355.607 127.094 355.607 122.087C355.607 111.793 349.162 107.568 347.956 107.568C346.75 107.568 345.483 109.949 345.677 111.615C344.588 110.196 335.037 101.42 317.821 101.42C313.052 101.42 309.626 103.59 309.626 107.159C309.626 108.783 310.427 111.315 311.815 112.186C310.403 112.284 308.403 113.233 308.403 115.867C308.403 118.876 312.701 120.3 314.407 120.3C316.112 120.3 318.641 118.637 319.863 117.074C320.243 118.796 319.096 121.601 323.086 121.626C324.772 121.636 331.87 118.261 333.197 117.133C331.85 119.31 329.996 120.31 329.996 122.774C329.996 125.079 331.197 126.692 333.05 126.692C334.904 126.692 340.255 124.318 341.245 123.246C341.456 124.809 339.6 135.72 340.159 138.695C342.022 138.826 344.308 136.597 344.338 138.425" fill="black"/>
<path d="M328.11 117.965C329.856 117.123 331.41 116.263 331.963 115.794C330.614 117.971 328.761 118.97 328.761 121.435C328.761 123.739 329.962 125.352 331.815 125.352C333.669 125.352 339.019 122.978 340.009 121.909C340.22 123.472 338.365 134.383 338.923 137.358C340.787 137.49 343.072 135.261 343.102 137.088" stroke="black" stroke-width="3.69" stroke-linecap="round" stroke-linejoin="round"/>
<path d="M321.676 100.344C319.986 100.167 318.286 100.079 316.585 100.08C311.815 100.08 308.39 102.25 308.39 105.82C308.39 107.442 309.19 109.975 310.578 110.846C309.167 110.945 307.166 111.894 307.166 114.527C307.166 117.537 311.464 118.96 313.17 118.96C314.877 118.96 317.405 117.298 318.627 115.734C318.974 117.31 318.043 119.794 320.944 120.222" stroke="black" stroke-width="3.69" stroke-linecap="round" stroke-linejoin="round"/>
<path d="M353.754 125.967C354.162 124.024 354.371 122.209 354.371 120.747C354.371 110.453 347.925 106.227 346.72 106.227C345.515 106.227 344.249 108.608 344.442 110.275C343.71 109.323 339.159 105.048 331.03 102.346" stroke="black" stroke-width="3.69" stroke-linecap="round" stroke-linejoin="round"/>
<path d="M347.397 139.124C348.96 137.669 350.275 135.625 351.327 133.366" stroke="black" stroke-width="3.69" stroke-linecap="round" stroke-linejoin="round"/>
<path d="M341.944 137.406C342.818 137.104 343.769 137.053 344.673 137.262C345.578 137.47 346.396 137.926 347.024 138.573C347.65 139.22 348.059 140.028 348.194 140.894C348.33 141.76 348.189 142.644 347.787 143.433C347.386 144.224 346.743 144.882 345.941 145.327C345.138 145.772 344.213 145.982 343.283 145.93C342.353 145.878 341.461 145.568 340.72 145.037C339.979 144.506 339.423 143.781 339.124 142.952" stroke="black" stroke-linecap="round" stroke-linejoin="round"/>
<path d="M4.98865 274.528H393.196" stroke="black" stroke-width="3.69" stroke-linecap="round" stroke-linejoin="round"/>
</g>
<defs>
<clipPath id="clip0">
<rect width="394" height="319" fill="white"/>
</clipPath>
</defs>
</svg>
