<svg width="176" height="29" viewBox="0 0 176 29" fill="none" xmlns="http://www.w3.org/2000/svg">
<path d="M22 9.44403C21.4236 9.69688 20.8094 9.86447 20.1691 9.94584C20.8278 9.55253 21.3306 8.93447 21.567 8.1895C20.9528 8.55569 20.2747 8.81434 19.552 8.95869C18.9688 8.33772 18.1376 7.95312 17.2308 7.95312C15.4716 7.95312 14.0553 9.38107 14.0553 11.1316C14.0553 11.3835 14.0766 11.6257 14.1289 11.8562C11.4871 11.7274 9.14953 10.4612 7.57919 8.53244C7.30503 9.0081 7.14422 9.55254 7.14422 10.1386C7.14422 11.2391 7.71094 12.2147 8.55569 12.7794C8.04516 12.7697 7.54431 12.6215 7.12 12.3881C7.12 12.3977 7.12 12.4103 7.12 12.4229C7.12 13.9671 8.22147 15.2497 9.66587 15.5452C9.40722 15.6159 9.12531 15.6498 8.83275 15.6498C8.62931 15.6498 8.42394 15.6382 8.23116 15.5956C8.64287 16.854 9.81119 17.7792 11.2004 17.8092C10.1193 18.6549 8.74653 19.1645 7.26047 19.1645C6.99988 19.1645 6.74994 19.1528 6.5 19.1209C7.90759 20.0286 9.57578 20.5469 11.3748 20.5469C17.2221 20.5469 20.419 15.7031 20.419 11.5046C20.419 11.3641 20.4142 11.2285 20.4074 11.0938C21.038 10.6463 21.5679 10.0873 22 9.44403Z" fill="white"/>
<path d="M14.5 28C21.9558 28 28 21.9558 28 14.5C28 7.04416 21.9558 1 14.5 1C7.04416 1 1 7.04416 1 14.5C1 21.9558 7.04416 28 14.5 28Z" stroke="white" stroke-width="2"/>
<path d="M63.5 28C70.9558 28 77 21.9558 77 14.5C77 7.04416 70.9558 1 63.5 1C56.0442 1 50 7.04416 50 14.5C50 21.9558 56.0442 28 63.5 28Z" stroke="white" stroke-width="2"/>
<path d="M66.3314 9.57365H67.7464V7.10915C67.5023 7.07556 66.6627 7 65.6849 7C63.6447 7 62.2472 8.28327 62.2472 10.6419V12.8125H59.9958V15.5676H62.2472V22.5H65.0074V15.5683H67.1678L67.5107 12.8131H65.0068V10.915C65.0074 10.1187 65.2219 9.57365 66.3314 9.57365Z" fill="white"/>
<path d="M161.5 28C168.956 28 175 21.9558 175 14.5C175 7.04416 168.956 1 161.5 1C154.044 1 148 7.04416 148 14.5C148 21.9558 154.044 28 161.5 28Z" stroke="white" stroke-width="2"/>
<path d="M165.304 7H158.196C155.882 7 154 8.88215 154 11.1957V18.3044C154 20.6178 155.882 22.5 158.196 22.5H165.304C167.618 22.5 169.5 20.6178 169.5 18.3044V11.1957C169.5 8.88215 167.618 7 165.304 7ZM161.75 18.9881C159.413 18.9881 157.512 17.0869 157.512 14.75C157.512 12.413 159.413 10.5118 161.75 10.5118C164.087 10.5118 165.988 12.413 165.988 14.75C165.988 17.0869 164.087 18.9881 161.75 18.9881ZM166.089 11.5113C165.399 11.5113 164.837 10.9496 164.837 10.259C164.837 9.56839 165.399 9.00656 166.089 9.00656C166.78 9.00656 167.342 9.56839 167.342 10.259C167.342 10.9496 166.78 11.5113 166.089 11.5113Z" fill="white"/>
<path d="M161.75 11.4204C159.914 11.4204 158.421 12.914 158.421 14.7499C158.421 16.5857 159.914 18.0794 161.75 18.0794C163.586 18.0794 165.079 16.5857 165.079 14.7499C165.079 12.914 163.586 11.4204 161.75 11.4204Z" fill="white"/>
<path d="M166.089 9.91528C165.9 9.91528 165.746 10.0695 165.746 10.2589C165.746 10.4484 165.9 10.6026 166.089 10.6026C166.279 10.6026 166.433 10.4485 166.433 10.2589C166.433 10.0694 166.279 9.91528 166.089 9.91528Z" fill="white"/>
<path d="M118.95 8.55005H106.55C105.698 8.55005 105 9.24755 105 10.1V19.4C105 20.2525 105.698 20.95 106.55 20.95H118.95C119.802 20.95 120.5 20.2525 120.5 19.4V10.1C120.5 9.24755 119.802 8.55005 118.95 8.55005ZM118.95 19.4H117.4V12.58L112.75 15.525L108.1 12.58V19.4H106.55V10.1H107.48L112.75 13.355L118.02 10.1H118.95V19.4Z" fill="white"/>
<path d="M112.5 28C119.956 28 126 21.9558 126 14.5C126 7.04416 119.956 1 112.5 1C105.044 1 99 7.04416 99 14.5C99 21.9558 105.044 28 112.5 28Z" stroke="white" stroke-width="2"/>
</svg>
