<svg width="47" height="42" viewBox="0 0 47 42" fill="none" xmlns="http://www.w3.org/2000/svg">
<circle cx="34" cy="34" r="34" fill="#27AE60"/>
<path fill-rule="evenodd" clip-rule="evenodd" d="M37.6435 13.8185C37.7686 13.9437 37.8528 14.1039 37.885 14.2779C37.9171 14.4519 37.8958 14.6316 37.8237 14.7933L27.924 37.0673C27.8548 37.223 27.7417 37.3552 27.5984 37.4476C27.4552 37.5399 27.288 37.5884 27.1176 37.5871C26.9472 37.5858 26.7808 37.5348 26.639 37.4403C26.4972 37.3457 26.386 37.2118 26.3192 37.055L22.7475 28.7145L14.4052 25.141C14.249 25.0738 14.1157 24.9625 14.0218 24.8208C13.9278 24.6791 13.8771 24.513 13.876 24.3429C13.8749 24.1729 13.9234 24.0062 14.0155 23.8632C14.1076 23.7203 14.2394 23.6072 14.3947 23.538L36.6687 13.6383C36.8302 13.5666 37.0095 13.5455 37.1832 13.5776C37.3568 13.6098 37.5167 13.6938 37.6417 13.8185H37.6435Z" fill="white"/>
</svg>
