<svg width="25" height="24" viewBox="0 0 25 24" fill="none" xmlns="http://www.w3.org/2000/svg">
<path fill-rule="evenodd" clip-rule="evenodd" d="M24.2632 12.1578C24.2632 15.2985 23.0155 18.3106 20.7947 20.5314C18.5739 22.7522 15.5618 23.9999 12.4211 23.9999C9.28036 23.9999 6.26828 22.7522 4.04745 20.5314C1.82663 18.3106 0.578979 15.2985 0.578979 12.1578C0.578979 9.01706 1.82663 6.00497 4.04745 3.78415C6.26828 1.56332 9.28036 0.315674 12.4211 0.315674C15.5618 0.315674 18.5739 1.56332 20.7947 3.78415C23.0155 6.00497 24.2632 9.01706 24.2632 12.1578ZM18.3865 7.67258C18.2808 7.56721 18.1549 7.48425 18.0164 7.42866C17.8778 7.37306 17.7295 7.34597 17.5803 7.34901C17.431 7.35205 17.2839 7.38516 17.1478 7.44635C17.0116 7.50754 16.8892 7.59556 16.7879 7.70515L11.6469 14.2553L8.54872 11.1556C8.33826 10.9595 8.0599 10.8528 7.77228 10.8578C7.48467 10.8629 7.21025 10.9794 7.00684 11.1828C6.80343 11.3863 6.68692 11.6607 6.68185 11.9483C6.67677 12.2359 6.78353 12.5143 6.97964 12.7247L10.8964 16.643C11.0019 16.7483 11.1276 16.8313 11.2659 16.887C11.4041 16.9427 11.5522 16.97 11.7013 16.9672C11.8504 16.9645 11.9973 16.9317 12.1335 16.8709C12.2696 16.8101 12.3921 16.7225 12.4936 16.6134L18.4028 9.22686C18.6043 9.0174 18.7156 8.7373 18.7128 8.4467C18.71 8.1561 18.5934 7.87817 18.388 7.67258H18.3865Z" fill="white"/>
</svg>
